<svg height="512pt" viewBox="0 0 512 512" width="512pt" xmlns="http://www.w3.org/2000/svg"><path d="m459.539062 52.460938c-33.832031-33.828126-78.8125-52.460938-126.65625-52.460938s-92.820312 18.632812-126.652343 52.460938c-33.832031 33.832031-52.460938 78.8125-52.460938 126.65625 0 42.808593 14.917969 83.324218 42.289063 115.609374l-36.214844 36.214844c-18.566406-9.570312-41.984375-6.585937-57.527344 8.957032l-87.863281 87.867187c-9.320313 9.320313-14.453125 21.710937-14.453125 34.890625s5.132812 25.570312 14.453125 34.890625c9.621094 9.617187 22.253906 14.429687 34.890625 14.429687s25.269531-4.8125 34.890625-14.429687l87.867187-87.867187c9.320313-9.316407 14.453126-21.707032 14.453126-34.890626 0-8.011718-1.898438-15.734374-5.480469-22.648437l36.199219-36.203125c32.289062 27.375 72.804687 42.292969 115.613281 42.292969 47.84375 0 92.824219-18.632813 126.652343-52.460938 33.828126-33.832031 52.460938-78.808593 52.460938-126.65625 0-47.839843-18.632812-92.820312-52.460938-126.652343zm-308.652343 336.007812-87.867188 87.867188c-7.539062 7.539062-19.8125 7.539062-27.355469 0-3.652343-3.65625-5.664062-8.511719-5.664062-13.679688s2.011719-10.023438 5.664062-13.679688l87.867188-87.863281c7.539062-7.542969 19.8125-7.542969 27.355469 0s7.542969 19.8125 0 27.355469zm287.4375-103.914062c-28.164063 28.164062-65.609375 43.675781-105.441407 43.675781-39.828124 0-77.273437-15.511719-105.4375-43.675781-28.164062-28.164063-43.675781-65.609376-43.675781-105.4375 0-39.832032 15.511719-77.277344 43.675781-105.441407 28.164063-28.164062 65.609376-43.675781 105.4375-43.675781 39.832032 0 77.277344 15.511719 105.441407 43.675781 28.164062 28.164063 43.675781 65.609375 43.675781 105.4375 0 39.832031-15.511719 77.277344-43.675781 105.441407zm0 0"/><path d="m256.882812 180.113281c-8.28125 0-15 6.714844-15 15v48.003907c0 8.285156 6.71875 15 15 15 8.285157 0 15-6.714844 15-15v-48.003907c0-8.285156-6.714843-15-15-15zm0 0"/><path d="m306.882812 130.113281c-8.28125 0-15 6.714844-15 15v98.003907c0 8.285156 6.71875 15 15 15 8.285157 0 15-6.714844 15-15v-98.003907c0-8.285156-6.714843-15-15-15zm0 0"/><path d="m356.882812 150.113281c-8.28125 0-15 6.714844-15 15v78.003907c0 8.285156 6.71875 15 15 15 8.285157 0 15-6.714844 15-15v-78.003907c0-8.285156-6.714843-15-15-15zm0 0"/><path d="m406.882812 100.113281c-8.28125 0-15 6.714844-15 15v128.003907c0 8.285156 6.71875 15 15 15 8.285157 0 15-6.714844 15-15v-128.003907c0-8.285156-6.714843-15-15-15zm0 0"/></svg>